<svg width="52" height="54" viewBox="0 0 52 54" fill="none" xmlns="http://www.w3.org/2000/svg">
<path d="M17.0507 30.8452C16.7101 31.3338 16.3038 31.8427 15.8302 32.3661C14.1587 34.2134 12.1087 35.7332 10.7857 36.5279L10.5631 36.6616C9.67381 37.1957 9.125 38.1897 9.125 39.2663V46.5C9.125 48.1569 10.4029 49.5 11.9792 49.5H39.8073C41.3836 49.5 42.6615 48.1569 42.6615 46.5V39.2663C42.6615 38.1897 42.1126 37.1957 41.2234 36.6616L41.0008 36.5279C39.6778 35.7332 37.6278 34.2134 35.9563 32.3661C35.4826 31.8427 35.0763 31.3338 34.7358 30.8452C35.9884 30.5281 36.9191 29.3426 36.9191 27.9286V23.0451C36.9191 22.0704 36.4686 21.1564 35.7109 20.5942L34.4987 19.6948C35.1981 18.2663 35.594 16.6453 35.594 14.9286C35.594 9.16903 31.1519 4.5 25.6724 4.5C20.1928 4.5 15.7507 9.16903 15.7507 14.9286C15.7507 16.7419 16.1922 18.4479 16.9665 19.9332L16.0755 20.5942C15.3179 21.1564 14.8673 22.0704 14.8673 23.0451V27.9286C14.8673 29.3426 15.798 30.5281 17.0507 30.8452Z" fill="#34364C"/>
<path d="M32.7399 14.9286C32.7399 17.0831 31.8672 19.0233 30.4732 20.3802L34.065 23.0451V27.9286H30.5488C30.7184 30.1922 32.1001 32.4576 33.8881 34.4336C35.7857 36.5307 38.0686 38.222 39.5848 39.1326L39.8073 39.2663V46.5H11.9792V39.2663L12.2018 39.1326C13.7179 38.222 16.0008 36.5307 17.8984 34.4336C19.6864 32.4576 21.0681 30.1922 21.2377 27.9286H17.7215V23.0451L21.0666 20.5632C19.5594 19.2009 18.6049 17.1819 18.6049 14.9286C18.6049 10.8259 21.7691 7.5 25.6724 7.5C29.5756 7.5 32.7399 10.8259 32.7399 14.9286Z" fill="#F4F7FA"/>
</svg>
